<svg width="81" height="40" viewBox="0 0 81 40" fill="none" xmlns="http://www.w3.org/2000/svg">
<g id="logo">
<g id="Vector">
<path d="M72.6813 19.1241C72.3142 19.5028 71.8553 19.6922 71.3046 19.6922C70.7539 19.6922 70.295 19.5028 69.9279 19.1241C69.5608 18.7453 69.3543 18.2718 69.3543 17.7273C69.3543 17.1828 69.5378 16.733 69.9279 16.3305C70.295 15.9517 70.7539 15.7623 71.3046 15.7623C71.8323 15.7623 72.2912 15.9517 72.6813 16.3305C73.0484 16.7093 73.255 17.1828 73.255 17.7273C73.255 18.2718 73.0484 18.7453 72.6813 19.1241ZM71.3046 15.4545C70.6851 15.4545 70.1573 15.6676 69.7214 16.1174C69.2854 16.5672 69.056 17.0881 69.056 17.7273C69.056 18.3665 69.2854 18.911 69.7214 19.3371C70.1573 19.7869 70.6851 20 71.3275 20C71.9471 20 72.4978 19.7869 72.9337 19.3371C73.3697 18.8873 73.5991 18.3428 73.5991 17.7273C73.5991 17.0881 73.3697 16.5672 72.9337 16.1174C72.4748 15.6676 71.9241 15.4545 71.3046 15.4545Z" fill="black"/>
<path d="M71.1405 17.6244C71.055 17.6501 70.9267 17.6758 70.7556 17.6758H70.3922V16.6981H70.7556C70.9908 16.6981 71.1619 16.7238 71.2474 16.801C71.3543 16.8782 71.397 17.0069 71.397 17.187C71.3756 17.4185 71.3115 17.5472 71.1405 17.6244ZM71.7819 17.1612C71.7819 16.8268 71.6536 16.5952 71.4184 16.4666C71.2901 16.3894 71.0763 16.3636 70.777 16.3636H69.9646V19.0909H70.3708V18.0103H70.6915C70.9053 18.0103 71.055 18.036 71.1405 18.1132C71.2901 18.2161 71.3543 18.422 71.3543 18.7307V19.0909H71.7391L71.7177 19.0652C71.6964 19.0395 71.6963 18.988 71.6963 18.9365C71.6963 18.8594 71.6963 18.8079 71.6963 18.7307V18.5249C71.6963 18.3962 71.6536 18.2419 71.5681 18.0875C71.4826 17.9331 71.3543 17.8559 71.1832 17.8302C71.3329 17.8045 71.4398 17.753 71.5253 17.7015C71.6963 17.5729 71.7819 17.4185 71.7819 17.1612Z" fill="black"/>
<path d="M67.1908 8.2969C67.1691 6.6201 66.6274 6.14102 65.5657 6.11924H62.4673C61.1889 6.11924 60.8205 7.03386 60.9722 8.92843C60.9072 6.85964 59.9105 6.11924 58.5238 6.11924H51.4169C50.3118 6.11924 49.6835 6.68543 49.2501 7.5565L48.0367 9.84305V7.38228C48.0367 6.57655 47.3 6.11924 46.715 6.11924H35.6213C34.4512 6.14102 33.9962 6.51122 33.3895 7.49117L32.1112 9.84305C32.0895 9.01553 32.0895 8.60178 32.0895 7.94848C32.0895 7.01208 31.6128 6.14102 30.5728 6.11924H22.8808C22.3825 6.09746 21.5374 6.51122 21.4724 7.49117V10.1915C19.9557 7.73071 17.2256 6.09746 14.1488 6.09746H6.86858C5.74187 6.09746 5.02685 6.96853 4.98351 7.86137V28.3096C2.42675 25.3916 0.84503 21.5807 0.84503 17.3995C0.84503 8.2969 8.21196 0.892843 17.269 0.892843H59.2388C68.2958 0.892843 75.6627 8.2969 75.6627 17.3995C75.6627 19.403 75.2944 21.2976 74.6444 23.0832H67.1908V8.2969ZM54.342 21.6024C56.812 17.3342 58.4804 14.2855 60.9722 10.1261V23.0397H54.4936C53.5619 23.0397 53.7786 22.5824 54.342 21.6024ZM11.1154 17.4649V11.9118H13.5638C15.0805 11.9118 16.3156 13.1531 16.3156 14.6775C16.3156 15.2654 16.1856 15.8098 15.8172 16.2889C14.7989 17.5738 13.3038 17.4649 12.1338 17.4649H11.1154ZM59.2388 33.8845H17.269C15.1022 33.8845 13.0221 33.4489 11.1154 32.665V20.1434L13.9322 22.6042C14.7122 23.2792 15.3189 23.4099 16.1639 23.2139C18.3957 22.6695 20.2807 21.2758 21.4724 19.3594V26.5893C21.4724 27.8088 22.4258 28.6798 23.6609 28.6798H31.8511C32.3495 28.6798 33.2379 28.6363 33.7145 27.7217L35.4263 24.4552C36.1846 22.8219 34.9279 23.0397 34.7329 23.0397H27.6693V20.187H31.7861C32.7395 20.1434 33.3245 19.6643 33.6279 19.207L35.5129 15.7881C35.838 15.113 35.7513 14.5468 34.7979 14.5468H27.6477V11.7158H36.7913V26.8942C36.7913 28.1572 37.138 28.6798 38.0264 28.6798H41.6232C42.4682 28.6798 42.8799 28.0701 42.8799 26.8942C42.9015 23.7148 42.8799 15.9841 42.8799 11.7158H53.3236C50.7235 16.5938 48.4267 20.1434 45.6533 24.9778C44.4833 27.003 45.025 28.6798 47.1484 28.6798H57.6137C59.0655 28.7016 60.0838 26.5675 60.9722 24.9996C61.0155 26.9159 60.9939 28.6581 62.7056 28.6798H71.1559C68.1658 31.881 63.9406 33.8845 59.2388 33.8845ZM79.8879 23.0397H75.5327C76.1394 21.254 76.5078 19.3594 76.5078 17.356C76.5078 7.79604 68.7725 0 59.2388 0H17.269C7.75695 0 0 7.77427 0 17.356C0 22.1033 1.90674 26.3933 4.96185 29.5291V34.908C4.96185 36.3888 5.67687 36.759 6.34856 37.3034L9.59868 39.7859C10.162 40.1779 11.1154 40.0908 11.0937 39.0238V33.5578C13.0005 34.2982 15.0805 34.712 17.2473 34.712H59.2171C64.439 34.712 69.0975 32.3601 72.2609 28.6798H76.0744C77.6345 28.6798 77.9378 27.983 78.5012 27.3079L80.6246 24.477C81.0579 23.9325 80.9713 23.0397 79.8879 23.0397Z" fill="black"/>
</g>
</g>
</svg>
